<svg width="60" height="60" viewBox="0 0 60 60" fill="none" xmlns="http://www.w3.org/2000/svg">
<g clip-path="url(#clip0_47_214)">
<circle cx="30" cy="30" r="30" fill="#FAFAFA"/>
<g clip-path="url(#clip1_47_214)">
<path d="M46.5416 40.7083C46.5416 41.4819 46.2343 42.2237 45.6873 42.7707C45.1403 43.3177 44.3985 43.625 43.6249 43.625H17.3749C16.6014 43.625 15.8595 43.3177 15.3125 42.7707C14.7655 42.2237 14.4583 41.4819 14.4583 40.7083V24.6667C14.4583 23.8931 14.7655 23.1513 15.3125 22.6043C15.8595 22.0573 16.6014 21.75 17.3749 21.75H23.2083L26.1249 17.375H34.8749L37.7916 21.75H43.6249C44.3985 21.75 45.1403 22.0573 45.6873 22.6043C46.2343 23.1513 46.5416 23.8931 46.5416 24.6667V40.7083Z" stroke="#1E1E1E" stroke-width="3" stroke-linecap="round" stroke-linejoin="round"/>
<path d="M30.5001 37.7917C33.7217 37.7917 36.3334 35.18 36.3334 31.9583C36.3334 28.7367 33.7217 26.125 30.5001 26.125C27.2784 26.125 24.6667 28.7367 24.6667 31.9583C24.6667 35.18 27.2784 37.7917 30.5001 37.7917Z" stroke="#1E1E1E" stroke-width="3" stroke-linecap="round" stroke-linejoin="round"/>
</g>
</g>
<defs>
<clipPath id="clip0_47_214">
<rect width="60" height="60" fill="white"/>
</clipPath>
<clipPath id="clip1_47_214">
<rect width="35" height="35" fill="white" transform="translate(13 13)"/>
</clipPath>
</defs>
</svg>
