<svg width="125" height="40" viewBox="0 0 125 40" fill="none" xmlns="http://www.w3.org/2000/svg">
<rect width="125" height="40" rx="20" fill="white"/>
<path d="M15.56 20.4C15.56 19.3013 15.8053 18.32 16.296 17.456C16.7973 16.5813 17.4747 15.904 18.328 15.424C19.192 14.9333 20.1573 14.688 21.224 14.688C22.472 14.688 23.5653 15.008 24.504 15.648C25.4427 16.288 26.0987 17.1733 26.472 18.304H23.896C23.64 17.7707 23.2773 17.3707 22.808 17.104C22.3493 16.8373 21.816 16.704 21.208 16.704C20.5573 16.704 19.976 16.8587 19.464 17.168C18.9627 17.4667 18.568 17.8933 18.28 18.448C18.0027 19.0027 17.864 19.6533 17.864 20.4C17.864 21.136 18.0027 21.7867 18.28 22.352C18.568 22.9067 18.9627 23.3387 19.464 23.648C19.976 23.9467 20.5573 24.096 21.208 24.096C21.816 24.096 22.3493 23.9627 22.808 23.696C23.2773 23.4187 23.64 23.0133 23.896 22.48H26.472C26.0987 23.6213 25.4427 24.512 24.504 25.152C23.576 25.7813 22.4827 26.096 21.224 26.096C20.1573 26.096 19.192 25.856 18.328 25.376C17.4747 24.8853 16.7973 24.208 16.296 23.344C15.8053 22.48 15.56 21.4987 15.56 20.4ZM27.8092 21.536C27.8092 20.64 27.9852 19.8453 28.3372 19.152C28.6999 18.4587 29.1853 17.9253 29.7933 17.552C30.4119 17.1787 31.0999 16.992 31.8573 16.992C32.5186 16.992 33.0946 17.1253 33.5853 17.392C34.0866 17.6587 34.4866 17.9947 34.7853 18.4V17.136H37.0413V26H34.7853V24.704C34.4973 25.12 34.0973 25.4667 33.5853 25.744C33.0839 26.0107 32.5026 26.144 31.8413 26.144C31.0946 26.144 30.4119 25.952 29.7933 25.568C29.1853 25.184 28.6999 24.6453 28.3372 23.952C27.9852 23.248 27.8092 22.4427 27.8092 21.536ZM34.7853 21.568C34.7853 21.024 34.6786 20.56 34.4653 20.176C34.2519 19.7813 33.9639 19.4827 33.6013 19.28C33.2386 19.0667 32.8493 18.96 32.4333 18.96C32.0173 18.96 31.6333 19.0613 31.2812 19.264C30.9293 19.4667 30.6413 19.7653 30.4173 20.16C30.2039 20.544 30.0973 21.0027 30.0973 21.536C30.0973 22.0693 30.2039 22.5387 30.4173 22.944C30.6413 23.3387 30.9293 23.6427 31.2812 23.856C31.6439 24.0693 32.0279 24.176 32.4333 24.176C32.8493 24.176 33.2386 24.0747 33.6013 23.872C33.9639 23.6587 34.2519 23.36 34.4653 22.976C34.6786 22.5813 34.7853 22.112 34.7853 21.568ZM41.469 18.416C41.757 18.0107 42.1517 17.6747 42.653 17.408C43.165 17.1307 43.7463 16.992 44.397 16.992C45.1543 16.992 45.837 17.1787 46.445 17.552C47.0637 17.9253 47.549 18.4587 47.901 19.152C48.2637 19.8347 48.445 20.6293 48.445 21.536C48.445 22.4427 48.2637 23.248 47.901 23.952C47.549 24.6453 47.0637 25.184 46.445 25.568C45.837 25.952 45.1543 26.144 44.397 26.144C43.7463 26.144 43.1703 26.0107 42.669 25.744C42.1783 25.4773 41.7783 25.1413 41.469 24.736V30.224H39.229V17.136H41.469V18.416ZM46.157 21.536C46.157 21.0027 46.045 20.544 45.821 20.16C45.6077 19.7653 45.3197 19.4667 44.957 19.264C44.605 19.0613 44.221 18.96 43.805 18.96C43.3997 18.96 43.0157 19.0667 42.653 19.28C42.301 19.4827 42.013 19.7813 41.789 20.176C41.5757 20.5707 41.469 21.0347 41.469 21.568C41.469 22.1013 41.5757 22.5653 41.789 22.96C42.013 23.3547 42.301 23.6587 42.653 23.872C43.0157 24.0747 43.3997 24.176 43.805 24.176C44.221 24.176 44.605 24.0693 44.957 23.856C45.3197 23.6427 45.6077 23.3387 45.821 22.944C46.045 22.5493 46.157 22.08 46.157 21.536ZM52.6808 18.976V23.264C52.6808 23.5627 52.7501 23.7813 52.8888 23.92C53.0381 24.048 53.2834 24.112 53.6248 24.112H54.6648V26H53.2568C51.3688 26 50.4248 25.0827 50.4248 23.248V18.976H49.3688V17.136H50.4248V14.944H52.6808V17.136H54.6648V18.976H52.6808ZM64.6439 17.136V26H62.3879V24.88C62.0999 25.264 61.7212 25.568 61.2519 25.792C60.7932 26.0053 60.2919 26.112 59.7479 26.112C59.0545 26.112 58.4412 25.968 57.9079 25.68C57.3745 25.3813 56.9532 24.9493 56.6439 24.384C56.3452 23.808 56.1959 23.1253 56.1959 22.336V17.136H58.4359V22.016C58.4359 22.72 58.6119 23.264 58.9639 23.648C59.3159 24.0213 59.7959 24.208 60.4039 24.208C61.0225 24.208 61.5079 24.0213 61.8599 23.648C62.2119 23.264 62.3879 22.72 62.3879 22.016V17.136H64.6439ZM69.094 18.512C69.382 18.0427 69.7553 17.6747 70.214 17.408C70.6833 17.1413 71.2167 17.008 71.814 17.008V19.36H71.222C70.518 19.36 69.9847 19.5253 69.622 19.856C69.27 20.1867 69.094 20.7627 69.094 21.584V26H66.854V17.136H69.094V18.512ZM81.5628 21.376C81.5628 21.696 81.5414 21.984 81.4988 22.24H75.0188C75.0721 22.88 75.2961 23.3813 75.6908 23.744C76.0854 24.1067 76.5708 24.288 77.1468 24.288C77.9788 24.288 78.5708 23.9307 78.9228 23.216H81.3388C81.0828 24.0693 80.5921 24.7733 79.8668 25.328C79.1414 25.872 78.2508 26.144 77.1948 26.144C76.3414 26.144 75.5734 25.9573 74.8908 25.584C74.2188 25.2 73.6908 24.6613 73.3068 23.968C72.9334 23.2747 72.7467 22.4747 72.7467 21.568C72.7467 20.6507 72.9334 19.8453 73.3068 19.152C73.6801 18.4587 74.2028 17.9253 74.8748 17.552C75.5468 17.1787 76.3201 16.992 77.1948 16.992C78.0374 16.992 78.7894 17.1733 79.4508 17.536C80.1228 17.8987 80.6401 18.416 81.0028 19.088C81.3761 19.7493 81.5628 20.512 81.5628 21.376ZM79.2428 20.736C79.2321 20.16 79.0241 19.7013 78.6188 19.36C78.2134 19.008 77.7174 18.832 77.1308 18.832C76.5761 18.832 76.1068 19.0027 75.7228 19.344C75.3494 19.6747 75.1201 20.1387 75.0348 20.736H79.2428Z" fill="#1E1E1E"/>
<path d="M111 27C111 27.5304 110.789 28.0391 110.414 28.4142C110.039 28.7893 109.53 29 109 29H91C90.4696 29 89.9609 28.7893 89.5858 28.4142C89.2107 28.0391 89 27.5304 89 27V16C89 15.4696 89.2107 14.9609 89.5858 14.5858C89.9609 14.2107 90.4696 14 91 14H95L97 11H103L105 14H109C109.53 14 110.039 14.2107 110.414 14.5858C110.789 14.9609 111 15.4696 111 16V27Z" stroke="#1E1E1E" stroke-width="2" stroke-linecap="round" stroke-linejoin="round"/>
<path d="M100 25C102.209 25 104 23.2091 104 21C104 18.7909 102.209 17 100 17C97.7909 17 96 18.7909 96 21C96 23.2091 97.7909 25 100 25Z" stroke="#1E1E1E" stroke-width="2" stroke-linecap="round" stroke-linejoin="round"/>
</svg>
