<svg width="85" height="40" viewBox="0 0 85 40" fill="none" xmlns="http://www.w3.org/2000/svg">
<g clip-path="url(#clip0_88_6)">
<path d="M65 0H20C8.9543 0 0 8.9543 0 20C0 31.0457 8.9543 40 20 40H65C76.0457 40 85 31.0457 85 20C85 8.9543 76.0457 0 65 0Z" fill="white"/>
<rect x="70" y="11" width="6" height="18" rx="2" stroke="#1E1E1E" stroke-width="2"/>
<rect x="60" y="11" width="6" height="18" rx="2" stroke="#1E1E1E" stroke-width="2"/>
<path d="M8.456 26V14.8H13.208C13.8693 14.8 14.4667 14.96 15 15.28C15.544 15.5893 15.9707 16.016 16.28 16.56C16.6 17.104 16.76 17.7173 16.76 18.4C16.76 19.0933 16.6 19.7173 16.28 20.272C15.9707 20.8267 15.544 21.2693 15 21.6C14.4667 21.92 13.8693 22.08 13.208 22.08H10.856V26H8.456ZM10.824 19.92H12.936C13.192 19.92 13.4213 19.856 13.624 19.728C13.8267 19.5893 13.9867 19.408 14.104 19.184C14.232 18.96 14.296 18.704 14.296 18.416C14.296 18.128 14.232 17.8773 14.104 17.664C13.9867 17.44 13.8267 17.2693 13.624 17.152C13.4213 17.024 13.192 16.96 12.936 16.96H10.824V19.92ZM21.6009 26.16C20.8969 26.16 20.2622 25.968 19.6969 25.584C19.1315 25.2 18.6835 24.6773 18.3529 24.016C18.0222 23.3547 17.8569 22.5973 17.8569 21.744C17.8569 20.8907 18.0222 20.1387 18.3529 19.488C18.6942 18.8267 19.1529 18.3093 19.7289 17.936C20.3049 17.552 20.9609 17.36 21.6969 17.36C22.1129 17.36 22.4915 17.424 22.8329 17.552C23.1849 17.6693 23.4889 17.8347 23.7449 18.048C24.0115 18.2613 24.2355 18.5067 24.4169 18.784C24.5982 19.0613 24.7262 19.36 24.8009 19.68L24.3209 19.6V17.536H26.5769V26H24.2889V23.968L24.8009 23.92C24.7155 24.2187 24.5769 24.5013 24.3849 24.768C24.1929 25.0347 23.9529 25.2747 23.6649 25.488C23.3875 25.6907 23.0729 25.856 22.7209 25.984C22.3689 26.1013 21.9955 26.16 21.6009 26.16ZM22.2249 24.192C22.6515 24.192 23.0249 24.0907 23.3449 23.888C23.6649 23.6853 23.9102 23.4027 24.0809 23.04C24.2622 22.6667 24.3529 22.2347 24.3529 21.744C24.3529 21.264 24.2622 20.8427 24.0809 20.48C23.9102 20.1173 23.6649 19.8347 23.3449 19.632C23.0249 19.4187 22.6515 19.312 22.2249 19.312C21.8089 19.312 21.4409 19.4187 21.1209 19.632C20.8115 19.8347 20.5662 20.1173 20.3849 20.48C20.2035 20.8427 20.1129 21.264 20.1129 21.744C20.1129 22.2347 20.2035 22.6667 20.3849 23.04C20.5662 23.4027 20.8115 23.6853 21.1209 23.888C21.4409 24.0907 21.8089 24.192 22.2249 24.192ZM31.6105 26.16C30.9918 26.16 30.4585 26.0267 30.0105 25.76C29.5732 25.4827 29.2318 25.0933 28.9865 24.592C28.7518 24.08 28.6345 23.4667 28.6345 22.752V17.536H30.9065V22.384C30.9065 22.768 30.9705 23.104 31.0985 23.392C31.2265 23.6693 31.4078 23.8827 31.6425 24.032C31.8772 24.1813 32.1652 24.256 32.5065 24.256C32.7518 24.256 32.9812 24.2187 33.1945 24.144C33.4078 24.0587 33.5892 23.9413 33.7385 23.792C33.8878 23.6427 34.0052 23.4667 34.0905 23.264C34.1758 23.0613 34.2185 22.8427 34.2185 22.608V17.536H36.4905V26H34.3305L34.2505 24.256L34.6665 24.064C34.5385 24.4587 34.3252 24.816 34.0265 25.136C33.7278 25.456 33.3705 25.7067 32.9545 25.888C32.5385 26.0693 32.0905 26.16 31.6105 26.16ZM41.6246 26.16C40.8353 26.16 40.1313 26.032 39.5126 25.776C38.9046 25.5093 38.414 25.1467 38.0406 24.688L39.4486 23.472C39.7793 23.824 40.1473 24.08 40.5526 24.24C40.958 24.3893 41.3633 24.464 41.7686 24.464C41.9286 24.464 42.0726 24.448 42.2006 24.416C42.3393 24.3733 42.4566 24.32 42.5526 24.256C42.6486 24.1813 42.718 24.096 42.7606 24C42.814 23.8933 42.8406 23.7813 42.8406 23.664C42.8406 23.4293 42.7446 23.2427 42.5526 23.104C42.446 23.0507 42.2806 22.9867 42.0566 22.912C41.8326 22.8267 41.5446 22.736 41.1926 22.64C40.6486 22.5013 40.1846 22.3413 39.8006 22.16C39.4273 21.968 39.1286 21.7547 38.9046 21.52C38.7126 21.296 38.5633 21.056 38.4566 20.8C38.3606 20.5333 38.3126 20.24 38.3126 19.92C38.3126 19.536 38.398 19.1893 38.5686 18.88C38.7393 18.56 38.974 18.288 39.2726 18.064C39.582 17.84 39.934 17.6693 40.3286 17.552C40.7233 17.424 41.1393 17.36 41.5766 17.36C42.014 17.36 42.4406 17.4133 42.8566 17.52C43.2726 17.6267 43.6566 17.7813 44.0086 17.984C44.3713 18.176 44.686 18.4053 44.9526 18.672L43.7366 20.016C43.5446 19.8347 43.326 19.6693 43.0806 19.52C42.846 19.3707 42.6006 19.2533 42.3446 19.168C42.0886 19.0827 41.8593 19.04 41.6566 19.04C41.4753 19.04 41.31 19.056 41.1606 19.088C41.022 19.12 40.9046 19.168 40.8086 19.232C40.7126 19.296 40.638 19.3813 40.5846 19.488C40.542 19.584 40.5206 19.6907 40.5206 19.808C40.5206 19.9253 40.5473 20.0373 40.6006 20.144C40.6646 20.2507 40.75 20.3413 40.8566 20.416C40.974 20.48 41.1446 20.5547 41.3686 20.64C41.6033 20.7253 41.918 20.8213 42.3126 20.928C42.8246 21.0667 43.2566 21.2213 43.6086 21.392C43.9713 21.5627 44.2593 21.76 44.4726 21.984C44.654 22.176 44.7873 22.3947 44.8726 22.64C44.958 22.8853 45.0006 23.1573 45.0006 23.456C45.0006 23.9787 44.8513 24.448 44.5526 24.864C44.2646 25.2693 43.8646 25.5893 43.3526 25.824C42.8406 26.048 42.2646 26.16 41.6246 26.16ZM50.6364 26.16C49.719 26.16 48.919 25.9733 48.2364 25.6C47.5537 25.2267 47.0204 24.7147 46.6364 24.064C46.2524 23.4133 46.0604 22.6667 46.0604 21.824C46.0604 21.1733 46.167 20.576 46.3804 20.032C46.5937 19.488 46.8924 19.0187 47.2764 18.624C47.6604 18.2187 48.1137 17.9093 48.6364 17.696C49.1697 17.472 49.7457 17.36 50.3644 17.36C50.9404 17.36 51.4737 17.4667 51.9644 17.68C52.455 17.8827 52.8764 18.176 53.2284 18.56C53.591 18.9333 53.8684 19.376 54.0604 19.888C54.2524 20.4 54.3377 20.96 54.3164 21.568L54.3004 22.272H47.5004L47.1324 20.88H52.4284L52.1724 21.168V20.816C52.151 20.528 52.055 20.2667 51.8844 20.032C51.7244 19.7973 51.5164 19.616 51.2604 19.488C51.0044 19.36 50.7164 19.296 50.3964 19.296C49.927 19.296 49.527 19.3867 49.1964 19.568C48.8764 19.7493 48.631 20.016 48.4604 20.368C48.2897 20.72 48.2044 21.1467 48.2044 21.648C48.2044 22.16 48.311 22.6027 48.5244 22.976C48.7484 23.3493 49.0577 23.6427 49.4524 23.856C49.8577 24.0587 50.3324 24.16 50.8764 24.16C51.2497 24.16 51.591 24.1013 51.9004 23.984C52.2097 23.8667 52.5404 23.664 52.8924 23.376L53.9804 24.896C53.671 25.1733 53.3297 25.408 52.9564 25.6C52.583 25.7813 52.199 25.92 51.8044 26.016C51.4097 26.112 51.0204 26.16 50.6364 26.16Z" fill="#1E1E1E"/>
</g>
<defs>
<clipPath id="clip0_88_6">
<rect width="85" height="40" fill="white"/>
</clipPath>
</defs>
</svg>
