<svg width="85" height="40" viewBox="0 0 85 40" fill="none" xmlns="http://www.w3.org/2000/svg">
<g clip-path="url(#clip0_91_24)">
<path d="M65 0H20C8.9543 0 0 8.9543 0 20C0 31.0457 8.9543 40 20 40H65C76.0457 40 85 31.0457 85 20C85 8.9543 76.0457 0 65 0Z" fill="white"/>
<rect x="56" y="11" width="17" height="18" rx="2" stroke="#1E1E1E" stroke-width="2"/>
<path d="M18.088 26.16C17.3947 26.16 16.76 26.0747 16.184 25.904C15.6187 25.7333 15.112 25.4827 14.664 25.152C14.2267 24.8213 13.832 24.4213 13.48 23.952L14.984 22.24C15.5067 22.9653 16.024 23.4613 16.536 23.728C17.0587 23.984 17.624 24.112 18.232 24.112C18.5627 24.112 18.856 24.0693 19.112 23.984C19.3787 23.888 19.5867 23.7547 19.736 23.584C19.8853 23.4133 19.96 23.2107 19.96 22.976C19.96 22.8053 19.9227 22.6507 19.848 22.512C19.7733 22.3627 19.6667 22.2347 19.528 22.128C19.3893 22.0107 19.224 21.9093 19.032 21.824C18.84 21.728 18.6267 21.648 18.392 21.584C18.1573 21.5093 17.9013 21.4507 17.624 21.408C17.0267 21.2693 16.504 21.104 16.056 20.912C15.608 20.7093 15.2347 20.464 14.936 20.176C14.6373 19.8773 14.4133 19.5413 14.264 19.168C14.1253 18.7947 14.056 18.3733 14.056 17.904C14.056 17.424 14.1627 16.9813 14.376 16.576C14.5893 16.16 14.8827 15.8027 15.256 15.504C15.64 15.2053 16.0773 14.976 16.568 14.816C17.0693 14.656 17.5973 14.576 18.152 14.576C18.8347 14.576 19.432 14.656 19.944 14.816C20.456 14.9653 20.8987 15.184 21.272 15.472C21.656 15.76 21.976 16.112 22.232 16.528L20.712 18C20.488 17.7013 20.2427 17.4507 19.976 17.248C19.72 17.0453 19.4373 16.896 19.128 16.8C18.8293 16.6933 18.52 16.64 18.2 16.64C17.848 16.64 17.544 16.688 17.288 16.784C17.032 16.8693 16.8293 16.9973 16.68 17.168C16.5413 17.3387 16.472 17.5467 16.472 17.792C16.472 17.984 16.52 18.1547 16.616 18.304C16.712 18.4533 16.8507 18.5867 17.032 18.704C17.2133 18.8107 17.432 18.9067 17.688 18.992C17.944 19.0773 18.2267 19.152 18.536 19.216C19.1227 19.3333 19.6507 19.488 20.12 19.68C20.5893 19.872 20.9893 20.1067 21.32 20.384C21.6613 20.6507 21.9227 20.9707 22.104 21.344C22.2853 21.7067 22.376 22.1173 22.376 22.576C22.376 23.3333 22.1947 23.9787 21.832 24.512C21.4693 25.0453 20.968 25.456 20.328 25.744C19.688 26.0213 18.9413 26.16 18.088 26.16ZM25.0458 26V15.392H27.3177V26H25.0458ZM23.4618 19.568V17.536H29.0458V19.568H23.4618ZM34.3845 26.16C33.5205 26.16 32.7472 25.9733 32.0645 25.6C31.3925 25.216 30.8592 24.6933 30.4645 24.032C30.0805 23.3707 29.8885 22.6133 29.8885 21.76C29.8885 20.9067 30.0805 20.1547 30.4645 19.504C30.8592 18.8427 31.3925 18.32 32.0645 17.936C32.7472 17.552 33.5205 17.36 34.3845 17.36C35.2378 17.36 36.0005 17.552 36.6725 17.936C37.3552 18.32 37.8885 18.8427 38.2725 19.504C38.6565 20.1547 38.8485 20.9067 38.8485 21.76C38.8485 22.6133 38.6565 23.3707 38.2725 24.032C37.8885 24.6933 37.3552 25.216 36.6725 25.6C36.0005 25.9733 35.2378 26.16 34.3845 26.16ZM34.3845 24.176C34.8005 24.176 35.1738 24.0747 35.5045 23.872C35.8352 23.6587 36.0912 23.3707 36.2725 23.008C36.4645 22.6347 36.5605 22.2187 36.5605 21.76C36.5605 21.2907 36.4645 20.8747 36.2725 20.512C36.0912 20.1387 35.8352 19.8507 35.5045 19.648C35.1738 19.4347 34.8005 19.328 34.3845 19.328C33.9578 19.328 33.5792 19.4347 33.2485 19.648C32.9178 19.8613 32.6565 20.1493 32.4645 20.512C32.2725 20.8747 32.1818 21.2907 32.1925 21.76C32.1818 22.2187 32.2725 22.6347 32.4645 23.008C32.6565 23.3707 32.9178 23.6587 33.2485 23.872C33.5792 24.0747 33.9578 24.176 34.3845 24.176ZM40.5579 29.52V17.536H42.7499L42.8139 19.44L42.3979 19.296C42.4725 18.9547 42.6539 18.64 42.9419 18.352C43.2405 18.064 43.6085 17.8293 44.0459 17.648C44.4832 17.4667 44.9419 17.376 45.4219 17.376C46.1579 17.376 46.8085 17.568 47.3739 17.952C47.9499 18.3253 48.4032 18.8427 48.7339 19.504C49.0752 20.1547 49.2459 20.9067 49.2459 21.76C49.2459 22.6027 49.0805 23.3547 48.7499 24.016C48.4192 24.6773 47.9659 25.2 47.3899 25.584C46.8139 25.9573 46.1579 26.144 45.4219 26.144C44.9312 26.144 44.4619 26.0533 44.0139 25.872C43.5765 25.68 43.2032 25.4293 42.8939 25.12C42.5845 24.8107 42.3925 24.48 42.3179 24.128L42.8459 23.904V29.52H40.5579ZM44.9099 24.192C45.3259 24.192 45.6939 24.0907 46.0139 23.888C46.3339 23.6853 46.5845 23.4027 46.7659 23.04C46.9472 22.6667 47.0379 22.24 47.0379 21.76C47.0379 21.28 46.9472 20.8587 46.7659 20.496C46.5845 20.1333 46.3339 19.8507 46.0139 19.648C45.7045 19.4453 45.3365 19.344 44.9099 19.344C44.4832 19.344 44.1099 19.4453 43.7899 19.648C43.4699 19.84 43.2192 20.1227 43.0379 20.496C42.8565 20.8587 42.7659 21.28 42.7659 21.76C42.7659 22.24 42.8565 22.6667 43.0379 23.04C43.2192 23.4027 43.4699 23.6853 43.7899 23.888C44.1099 24.0907 44.4832 24.192 44.9099 24.192Z" fill="#1E1E1E"/>
</g>
<defs>
<clipPath id="clip0_91_24">
<rect width="85" height="40" fill="white"/>
</clipPath>
</defs>
</svg>
