<svg width="85" height="40" viewBox="0 0 85 40" fill="none" xmlns="http://www.w3.org/2000/svg">
<rect width="85" height="40" rx="20" fill="white"/>
<path d="M18.96 26.112C18.1813 26.112 17.4773 25.9787 16.848 25.712C16.2293 25.4453 15.7387 25.0613 15.376 24.56C15.0133 24.0587 14.8267 23.4667 14.816 22.784H17.216C17.248 23.2427 17.408 23.6053 17.696 23.872C17.9947 24.1387 18.4 24.272 18.912 24.272C19.4347 24.272 19.8453 24.1493 20.144 23.904C20.4427 23.648 20.592 23.3173 20.592 22.912C20.592 22.5813 20.4907 22.3093 20.288 22.096C20.0853 21.8827 19.8293 21.7173 19.52 21.6C19.2213 21.472 18.8053 21.3333 18.272 21.184C17.5467 20.9707 16.9547 20.7627 16.496 20.56C16.048 20.3467 15.6587 20.032 15.328 19.616C15.008 19.1893 14.848 18.624 14.848 17.92C14.848 17.2587 15.0133 16.6827 15.344 16.192C15.6747 15.7013 16.1387 15.328 16.736 15.072C17.3333 14.8053 18.016 14.672 18.784 14.672C19.936 14.672 20.8693 14.9547 21.584 15.52C22.3093 16.0747 22.7093 16.8533 22.784 17.856H20.32C20.2987 17.472 20.1333 17.1573 19.824 16.912C19.5253 16.656 19.1253 16.528 18.624 16.528C18.1867 16.528 17.8347 16.64 17.568 16.864C17.312 17.088 17.184 17.4133 17.184 17.84C17.184 18.1387 17.28 18.3893 17.472 18.592C17.6747 18.784 17.92 18.944 18.208 19.072C18.5067 19.1893 18.9227 19.328 19.456 19.488C20.1813 19.7013 20.7733 19.9147 21.232 20.128C21.6907 20.3413 22.0853 20.6613 22.416 21.088C22.7467 21.5147 22.912 22.0747 22.912 22.768C22.912 23.3653 22.7573 23.92 22.448 24.432C22.1387 24.944 21.6853 25.3547 21.088 25.664C20.4907 25.9627 19.7813 26.112 18.96 26.112ZM27.462 18.976V23.264C27.462 23.5627 27.5313 23.7813 27.67 23.92C27.8193 24.048 28.0647 24.112 28.406 24.112H29.446V26H28.038C26.15 26 25.206 25.0827 25.206 23.248V18.976H24.15V17.136H25.206V14.944H27.462V17.136H29.446V18.976H27.462ZM34.9931 26.144C34.1398 26.144 33.3718 25.9573 32.6891 25.584C32.0065 25.2 31.4678 24.6613 31.0731 23.968C30.6891 23.2747 30.4971 22.4747 30.4971 21.568C30.4971 20.6613 30.6945 19.8613 31.0891 19.168C31.4945 18.4747 32.0438 17.9413 32.7371 17.568C33.4305 17.184 34.2038 16.992 35.0571 16.992C35.9105 16.992 36.6838 17.184 37.3771 17.568C38.0705 17.9413 38.6145 18.4747 39.0091 19.168C39.4145 19.8613 39.6171 20.6613 39.6171 21.568C39.6171 22.4747 39.4091 23.2747 38.9931 23.968C38.5878 24.6613 38.0331 25.2 37.3291 25.584C36.6358 25.9573 35.8571 26.144 34.9931 26.144ZM34.9931 24.192C35.3985 24.192 35.7771 24.096 36.1291 23.904C36.4918 23.7013 36.7798 23.4027 36.9931 23.008C37.2065 22.6133 37.3131 22.1333 37.3131 21.568C37.3131 20.7253 37.0891 20.08 36.6411 19.632C36.2038 19.1733 35.6651 18.944 35.0251 18.944C34.3851 18.944 33.8465 19.1733 33.4091 19.632C32.9825 20.08 32.7691 20.7253 32.7691 21.568C32.7691 22.4107 32.9771 23.0613 33.3931 23.52C33.8198 23.968 34.3531 24.192 34.9931 24.192ZM43.5003 18.416C43.7883 18.0107 44.1829 17.6747 44.6843 17.408C45.1963 17.1307 45.7776 16.992 46.4283 16.992C47.1856 16.992 47.8683 17.1787 48.4763 17.552C49.0949 17.9253 49.5803 18.4587 49.9323 19.152C50.2949 19.8347 50.4763 20.6293 50.4763 21.536C50.4763 22.4427 50.2949 23.248 49.9323 23.952C49.5803 24.6453 49.0949 25.184 48.4763 25.568C47.8683 25.952 47.1856 26.144 46.4283 26.144C45.7776 26.144 45.2016 26.0107 44.7003 25.744C44.2096 25.4773 43.8096 25.1413 43.5003 24.736V30.224H41.2603V17.136H43.5003V18.416ZM48.1883 21.536C48.1883 21.0027 48.0763 20.544 47.8523 20.16C47.6389 19.7653 47.3509 19.4667 46.9883 19.264C46.6363 19.0613 46.2523 18.96 45.8363 18.96C45.4309 18.96 45.0469 19.0667 44.6843 19.28C44.3323 19.4827 44.0443 19.7813 43.8203 20.176C43.6069 20.5707 43.5003 21.0347 43.5003 21.568C43.5003 22.1013 43.6069 22.5653 43.8203 22.96C44.0443 23.3547 44.3323 23.6587 44.6843 23.872C45.0469 24.0747 45.4309 24.176 45.8363 24.176C46.2523 24.176 46.6363 24.0693 46.9883 23.856C47.3509 23.6427 47.6389 23.3387 47.8523 22.944C48.0763 22.5493 48.1883 22.08 48.1883 21.536Z" fill="#1E1E1E"/>
<rect x="68" y="11" width="6" height="18" rx="2" stroke="#1E1E1E" stroke-width="2"/>
<rect x="58" y="11" width="6" height="18" rx="2" stroke="#1E1E1E" stroke-width="2"/>
</svg>
