<svg width="140" height="40" viewBox="0 0 140 40" fill="none" xmlns="http://www.w3.org/2000/svg">
<rect width="140" height="40" rx="20" fill="white"/>
<path d="M20.008 14.832C21.1813 14.832 22.2107 15.0613 23.096 15.52C23.992 15.9787 24.68 16.6347 25.16 17.488C25.6507 18.3307 25.896 19.312 25.896 20.432C25.896 21.552 25.6507 22.5333 25.16 23.376C24.68 24.208 23.992 24.8533 23.096 25.312C22.2107 25.7707 21.1813 26 20.008 26H16.104V14.832H20.008ZM19.928 24.096C21.1013 24.096 22.008 23.776 22.648 23.136C23.288 22.496 23.608 21.5947 23.608 20.432C23.608 19.2693 23.288 18.3627 22.648 17.712C22.008 17.0507 21.1013 16.72 19.928 16.72H18.344V24.096H19.928ZM31.5088 26.144C30.6554 26.144 29.8874 25.9573 29.2048 25.584C28.5221 25.2 27.9834 24.6613 27.5888 23.968C27.2048 23.2747 27.0128 22.4747 27.0128 21.568C27.0128 20.6613 27.2101 19.8613 27.6048 19.168C28.0101 18.4747 28.5594 17.9413 29.2528 17.568C29.9461 17.184 30.7194 16.992 31.5728 16.992C32.4261 16.992 33.1994 17.184 33.8928 17.568C34.5861 17.9413 35.1301 18.4747 35.5248 19.168C35.9301 19.8613 36.1328 20.6613 36.1328 21.568C36.1328 22.4747 35.9248 23.2747 35.5087 23.968C35.1034 24.6613 34.5488 25.2 33.8448 25.584C33.1514 25.9573 32.3728 26.144 31.5088 26.144ZM31.5088 24.192C31.9141 24.192 32.2928 24.096 32.6448 23.904C33.0074 23.7013 33.2954 23.4027 33.5088 23.008C33.7221 22.6133 33.8288 22.1333 33.8288 21.568C33.8288 20.7253 33.6048 20.08 33.1568 19.632C32.7194 19.1733 32.1808 18.944 31.5408 18.944C30.9008 18.944 30.3621 19.1733 29.9248 19.632C29.4981 20.08 29.2848 20.7253 29.2848 21.568C29.2848 22.4107 29.4928 23.0613 29.9088 23.52C30.3354 23.968 30.8688 24.192 31.5088 24.192ZM50.0639 17.136L47.4719 26H45.0559L43.4399 19.808L41.8239 26H39.3919L36.7839 17.136H39.0559L40.6239 23.888L42.3199 17.136H44.6879L46.3519 23.872L47.9199 17.136H50.0639ZM56.1879 17.008C57.2439 17.008 58.0972 17.344 58.7479 18.016C59.3985 18.6773 59.7239 19.6053 59.7239 20.8V26H57.4839V21.104C57.4839 20.4 57.3079 19.8613 56.9559 19.488C56.6039 19.104 56.1239 18.912 55.5159 18.912C54.8972 18.912 54.4065 19.104 54.0439 19.488C53.6919 19.8613 53.5159 20.4 53.5159 21.104V26H51.2759V17.136H53.5159V18.24C53.8145 17.856 54.1932 17.5573 54.6519 17.344C55.1212 17.12 55.6332 17.008 56.1879 17.008ZM64.094 14.16V26H61.854V14.16H64.094ZM70.2431 26.144C69.3898 26.144 68.6218 25.9573 67.9391 25.584C67.2565 25.2 66.7178 24.6613 66.3231 23.968C65.9391 23.2747 65.7471 22.4747 65.7471 21.568C65.7471 20.6613 65.9445 19.8613 66.3391 19.168C66.7445 18.4747 67.2938 17.9413 67.9871 17.568C68.6805 17.184 69.4538 16.992 70.3071 16.992C71.1605 16.992 71.9338 17.184 72.6271 17.568C73.3205 17.9413 73.8645 18.4747 74.2591 19.168C74.6645 19.8613 74.8671 20.6613 74.8671 21.568C74.8671 22.4747 74.6591 23.2747 74.2431 23.968C73.8378 24.6613 73.2831 25.2 72.5791 25.584C71.8858 25.9573 71.1071 26.144 70.2431 26.144ZM70.2431 24.192C70.6485 24.192 71.0271 24.096 71.3791 23.904C71.7418 23.7013 72.0298 23.4027 72.2431 23.008C72.4565 22.6133 72.5631 22.1333 72.5631 21.568C72.5631 20.7253 72.3391 20.08 71.8911 19.632C71.4538 19.1733 70.9151 18.944 70.2751 18.944C69.6351 18.944 69.0965 19.1733 68.6591 19.632C68.2325 20.08 68.0191 20.7253 68.0191 21.568C68.0191 22.4107 68.2271 23.0613 68.6431 23.52C69.0698 23.968 69.6031 24.192 70.2431 24.192ZM75.9342 21.536C75.9342 20.64 76.1102 19.8453 76.4622 19.152C76.8249 18.4587 77.3103 17.9253 77.9183 17.552C78.5369 17.1787 79.2249 16.992 79.9823 16.992C80.6436 16.992 81.2196 17.1253 81.7103 17.392C82.2116 17.6587 82.6116 17.9947 82.9103 18.4V17.136H85.1663V26H82.9103V24.704C82.6223 25.12 82.2223 25.4667 81.7103 25.744C81.2089 26.0107 80.6276 26.144 79.9663 26.144C79.2196 26.144 78.5369 25.952 77.9183 25.568C77.3103 25.184 76.8249 24.6453 76.4622 23.952C76.1102 23.248 75.9342 22.4427 75.9342 21.536ZM82.9103 21.568C82.9103 21.024 82.8036 20.56 82.5903 20.176C82.3769 19.7813 82.0889 19.4827 81.7263 19.28C81.3636 19.0667 80.9743 18.96 80.5583 18.96C80.1423 18.96 79.7583 19.0613 79.4062 19.264C79.0543 19.4667 78.7663 19.7653 78.5423 20.16C78.3289 20.544 78.2223 21.0027 78.2223 21.536C78.2223 22.0693 78.3289 22.5387 78.5423 22.944C78.7663 23.3387 79.0543 23.6427 79.4062 23.856C79.7689 24.0693 80.1529 24.176 80.5583 24.176C80.9743 24.176 81.3636 24.0747 81.7263 23.872C82.0889 23.6587 82.3769 23.36 82.5903 22.976C82.8036 22.5813 82.9103 22.112 82.9103 21.568ZM86.778 21.536C86.778 20.64 86.954 19.8453 87.306 19.152C87.6687 18.4587 88.1593 17.9253 88.778 17.552C89.3967 17.1787 90.0847 16.992 90.842 16.992C91.418 16.992 91.9673 17.12 92.49 17.376C93.0127 17.6213 93.4287 17.952 93.738 18.368V14.16H96.01V26H93.738V24.688C93.4607 25.1253 93.0713 25.4773 92.57 25.744C92.0687 26.0107 91.4873 26.144 90.826 26.144C90.0793 26.144 89.3967 25.952 88.778 25.568C88.1593 25.184 87.6687 24.6453 87.306 23.952C86.954 23.248 86.778 22.4427 86.778 21.536ZM93.754 21.568C93.754 21.024 93.6473 20.56 93.434 20.176C93.2207 19.7813 92.9327 19.4827 92.57 19.28C92.2073 19.0667 91.818 18.96 91.402 18.96C90.986 18.96 90.602 19.0613 90.25 19.264C89.898 19.4667 89.61 19.7653 89.386 20.16C89.1727 20.544 89.066 21.0027 89.066 21.536C89.066 22.0693 89.1727 22.5387 89.386 22.944C89.61 23.3387 89.898 23.6427 90.25 23.856C90.6127 24.0693 90.9967 24.176 91.402 24.176C91.818 24.176 92.2073 24.0747 92.57 23.872C92.9327 23.6587 93.2207 23.36 93.434 22.976C93.6473 22.5813 93.754 22.112 93.754 21.568Z" fill="#1E1E1E"/>
<path d="M124 22V26C124 26.5304 123.789 27.0391 123.414 27.4142C123.039 27.7893 122.53 28 122 28H108C107.47 28 106.961 27.7893 106.586 27.4142C106.211 27.0391 106 26.5304 106 26V22" stroke="#1E1E1E" stroke-width="2" stroke-linecap="round" stroke-linejoin="round"/>
<path d="M110 17L115 22L120 17" stroke="#1E1E1E" stroke-width="2" stroke-linecap="round" stroke-linejoin="round"/>
<path d="M115 22V10" stroke="#1E1E1E" stroke-width="2" stroke-linecap="round" stroke-linejoin="round"/>
</svg>
