<svg width="85" height="40" viewBox="0 0 85 40" fill="none" xmlns="http://www.w3.org/2000/svg">
<rect width="85" height="40" rx="20" fill="white"/>
<path d="M24.248 18.288C24.248 18.8853 24.104 19.4453 23.816 19.968C23.5387 20.4907 23.096 20.912 22.488 21.232C21.8907 21.552 21.1333 21.712 20.216 21.712H18.344V26H16.104V14.832H20.216C21.08 14.832 21.816 14.9813 22.424 15.28C23.032 15.5787 23.4853 15.9893 23.784 16.512C24.0933 17.0347 24.248 17.6267 24.248 18.288ZM20.12 19.904C20.7387 19.904 21.1973 19.7653 21.496 19.488C21.7947 19.2 21.944 18.8 21.944 18.288C21.944 17.2 21.336 16.656 20.12 16.656H18.344V19.904H20.12ZM28.0784 14.16V26H25.8384V14.16H28.0784ZM29.7155 21.536C29.7155 20.64 29.8915 19.8453 30.2435 19.152C30.6062 18.4587 31.0915 17.9253 31.6995 17.552C32.3182 17.1787 33.0062 16.992 33.7635 16.992C34.4248 16.992 35.0008 17.1253 35.4915 17.392C35.9928 17.6587 36.3928 17.9947 36.6915 18.4V17.136H38.9475V26H36.6915V24.704C36.4035 25.12 36.0035 25.4667 35.4915 25.744C34.9902 26.0107 34.4088 26.144 33.7475 26.144C33.0008 26.144 32.3182 25.952 31.6995 25.568C31.0915 25.184 30.6062 24.6453 30.2435 23.952C29.8915 23.248 29.7155 22.4427 29.7155 21.536ZM36.6915 21.568C36.6915 21.024 36.5848 20.56 36.3715 20.176C36.1582 19.7813 35.8702 19.4827 35.5075 19.28C35.1448 19.0667 34.7555 18.96 34.3395 18.96C33.9235 18.96 33.5395 19.0613 33.1875 19.264C32.8355 19.4667 32.5475 19.7653 32.3235 20.16C32.1102 20.544 32.0035 21.0027 32.0035 21.536C32.0035 22.0693 32.1102 22.5387 32.3235 22.944C32.5475 23.3387 32.8355 23.6427 33.1875 23.856C33.5502 24.0693 33.9342 24.176 34.3395 24.176C34.7555 24.176 35.1448 24.0747 35.5075 23.872C35.8702 23.6587 36.1582 23.36 36.3715 22.976C36.5848 22.5813 36.6915 22.112 36.6915 21.568ZM49.6153 17.136L44.1273 30.192H41.7433L43.6633 25.776L40.1113 17.136H42.6233L44.9113 23.328L47.2313 17.136H49.6153Z" fill="#1E1E1E"/>
<path d="M60 11L74 20L60 29V11Z" stroke="#1E1E1E" stroke-width="2" stroke-linecap="round" stroke-linejoin="round"/>
</svg>
